<mxfile host="app.diagrams.net" modified="2023-11-16T12:37:26.998Z" agent="Mozilla/5.0 (Macintosh; Intel Mac OS X 10_15_7) AppleWebKit/537.36 (KHTML, like Gecko) Chrome/119.0.0.0 Safari/537.36" version="22.1.2" etag="r7qr7E-CVIS7CJI_BMJd" type="github">
  <diagram name="第 1 页" id="rEW4q8tnNHmrB3a3huMl">
    <mxGraphModel>
      <root>
        <mxCell id="0" />
        <mxCell id="1" parent="0" />
      </root>
    </mxGraphModel>
  </diagram>
</mxfile>
